<mxfile host="app.diagrams.net" agent="Mozilla/5.0 (Windows NT 10.0; Win64; x64) AppleWebKit/537.36 (KHTML, like Gecko) Chrome/132.0.0.0 Safari/537.36" version="26.1.0">
  <diagram name="Page-1" id="hQSeXqwMeEQ0EP_KIPkg">
    <mxGraphModel grid="1" page="1" gridSize="10" guides="1" tooltips="1" connect="1" arrows="1" fold="1" pageScale="1" pageWidth="850" pageHeight="1100" math="0" shadow="0">
      <root>
        <mxCell id="0" />
        <mxCell id="1" parent="0" />
        <mxCell id="rxKavJKQo01hqmXTo2Em-1" value="bắt đầu" style="ellipse;whiteSpace=wrap;html=1;" vertex="1" parent="1">
          <mxGeometry x="90" y="120" width="160" height="40" as="geometry" />
        </mxCell>
        <mxCell id="rxKavJKQo01hqmXTo2Em-2" value="" style="endArrow=classic;html=1;rounded=0;" edge="1" parent="1">
          <mxGeometry width="50" height="50" relative="1" as="geometry">
            <mxPoint x="170" y="160" as="sourcePoint" />
            <mxPoint x="170" y="210" as="targetPoint" />
          </mxGeometry>
        </mxCell>
        <mxCell id="rxKavJKQo01hqmXTo2Em-3" value="input toán, lý, hoá" style="shape=parallelogram;perimeter=parallelogramPerimeter;whiteSpace=wrap;html=1;fixedSize=1;" vertex="1" parent="1">
          <mxGeometry x="80" y="210" width="180" height="60" as="geometry" />
        </mxCell>
        <mxCell id="rxKavJKQo01hqmXTo2Em-4" value="" style="endArrow=classic;html=1;rounded=0;" edge="1" parent="1">
          <mxGeometry width="50" height="50" relative="1" as="geometry">
            <mxPoint x="170" y="270" as="sourcePoint" />
            <mxPoint x="170" y="330" as="targetPoint" />
          </mxGeometry>
        </mxCell>
        <mxCell id="rxKavJKQo01hqmXTo2Em-5" value="điểm trung bình = toán + lý + hoá/ 3&lt;div&gt;&lt;br&gt;&lt;/div&gt;" style="rounded=0;whiteSpace=wrap;html=1;" vertex="1" parent="1">
          <mxGeometry x="60" y="330" width="230" height="60" as="geometry" />
        </mxCell>
        <mxCell id="rxKavJKQo01hqmXTo2Em-6" value="" style="endArrow=classic;html=1;rounded=0;" edge="1" parent="1">
          <mxGeometry width="50" height="50" relative="1" as="geometry">
            <mxPoint x="170" y="390" as="sourcePoint" />
            <mxPoint x="170" y="450" as="targetPoint" />
          </mxGeometry>
        </mxCell>
        <mxCell id="rxKavJKQo01hqmXTo2Em-7" value="hiển thị kết quả" style="strokeWidth=2;html=1;shape=mxgraph.flowchart.start_1;whiteSpace=wrap;" vertex="1" parent="1">
          <mxGeometry x="80" y="450" width="190" height="60" as="geometry" />
        </mxCell>
        <mxCell id="rxKavJKQo01hqmXTo2Em-8" value="&lt;font style=&quot;font-size: 17px;&quot;&gt;begin&lt;br&gt;&lt;br&gt;input toán, lý, hoá&lt;br&gt;&lt;br&gt;tính điểm trung binh: Điểm trung bình = toán + lý + hoá/3&lt;br&gt;&lt;br&gt;In ra điểm trung bình của ba môn.&lt;/font&gt;" style="text;html=1;align=left;verticalAlign=middle;resizable=0;points=[];autosize=1;strokeColor=none;fillColor=none;" vertex="1" parent="1">
          <mxGeometry x="352" y="163" width="451" height="154" as="geometry" />
        </mxCell>
      </root>
    </mxGraphModel>
  </diagram>
</mxfile>
